<svg width="31" height="58" viewBox="0 0 31 58" fill="none" xmlns="http://www.w3.org/2000/svg">
<path fill-rule="evenodd" clip-rule="evenodd" d="M30.5434 41.2269C31.1485 41.829 31.1527 42.8093 30.5527 43.4165L16.5956 57.5418C15.992 58.1527 15.0079 58.1527 14.4044 57.5418L0.447277 43.4165C-0.1527 42.8093 -0.148541 41.829 0.456564 41.2269C1.06167 40.6248 2.03858 40.629 2.63855 41.2362L13.9571 52.581C13.9571 52.581 13.9571 50.3133 13.9571 48.9307L13.9571 1.54828C13.9571 0.69319 14.6479 -7.14774e-07 15.5 -6.77527e-07C16.3521 -6.40279e-07 17.0429 0.693191 17.0429 1.54829L17.0429 52.581C17.0429 52.581 18.7114 51.0026 19.6815 50.0208L28.3614 41.2362C28.9614 40.629 29.9383 40.6248 30.5434 41.2269Z" fill="white"/>
</svg>
