<svg width="260" height="110" viewBox="0 0 260 110" fill="none" xmlns="http://www.w3.org/2000/svg">
<path fill-rule="evenodd" clip-rule="evenodd" d="M220.279 16.8808C200.301 16.7259 173.726 19.3792 147.239 30.5734C120.869 41.7181 104.287 60.526 94.2859 76.5848C89.2863 84.6129 85.9397 91.9419 83.8449 97.2577C82.7978 99.9148 82.0643 102.067 81.5942 103.549C81.3591 104.289 81.1899 104.863 81.0803 105.247C81.0254 105.44 80.9855 105.585 80.9597 105.681C80.9468 105.729 80.9374 105.764 80.9315 105.787L80.9251 105.811L80.9238 105.816C80.9239 105.816 80.9238 105.816 79.4705 105.445C78.0173 105.073 78.0175 105.072 78.0177 105.071L78.0185 105.068L78.021 105.059L78.0299 105.025C78.0376 104.995 78.0487 104.954 78.0633 104.899C78.0927 104.79 78.1363 104.632 78.195 104.426C78.3125 104.013 78.4902 103.412 78.7346 102.641C79.2235 101.101 79.9794 98.884 81.0538 96.1578C83.2018 90.7068 86.6262 83.2094 91.7394 74.9989C101.964 58.5803 118.974 39.2618 146.071 27.8101C173.051 16.4078 200.062 13.7239 220.302 13.8809C230.428 13.9594 238.873 14.749 244.793 15.5201C247.754 15.9057 250.084 16.2869 251.679 16.5727C252.476 16.7155 253.09 16.8346 253.506 16.9184C253.714 16.9603 253.873 16.9934 253.981 17.0163C254.035 17.0278 254.077 17.0367 254.105 17.0428L254.138 17.05L254.15 17.0526C254.151 17.0528 254.151 17.0529 253.826 18.5173C253.501 19.9816 253.501 19.9817 253.501 19.9817L253.495 19.9802L253.469 19.9746C253.445 19.9695 253.409 19.9616 253.36 19.9512C253.261 19.9304 253.112 19.8993 252.914 19.8594C252.518 19.7796 251.925 19.6646 251.15 19.5256C249.598 19.2476 247.315 18.874 244.406 18.495C238.586 17.7369 230.263 16.9582 220.279 16.8808Z" fill="#8D4B00"/>
<path fill-rule="evenodd" clip-rule="evenodd" d="M243.636 0.565303C244.385 0.156278 245.326 0.430926 245.738 1.17874L255.314 18.575C255.728 19.3273 255.448 20.2709 254.691 20.6759L237.181 30.0425C236.428 30.4452 235.49 30.1626 235.084 29.4113C234.679 28.66 234.961 27.7246 235.714 27.3219L249.807 19.6947C250.985 18.9562 251.607 18.6189 251.607 18.6189C251.607 18.6189 251.27 17.9974 250.685 16.7362C250.685 16.7362 249.646 14.6879 248.98 13.4788L243.025 2.65995C242.613 1.91213 242.887 0.974327 243.636 0.565303Z" fill="#8D4B00"/>
</svg>
