<svg width="15" height="8" viewBox="0 0 15 8" fill="none" xmlns="http://www.w3.org/2000/svg">
<path fill-rule="evenodd" clip-rule="evenodd" d="M14.2872 0.202499C14.5602 0.474132 14.5621 0.916418 14.2914 1.19037L7.99436 7.5633C7.72204 7.8389 7.27805 7.8389 7.00572 7.5633L0.70872 1.19037C0.438029 0.916418 0.439905 0.474132 0.71291 0.202499C0.985915 -0.069134 1.42667 -0.0672511 1.69736 0.206703L6.80393 5.32512C7.27446 5.73996 7.50004 5.96554 7.50004 5.96554C7.50004 5.96554 7.72563 5.73996 8.19617 5.32512C8.19617 5.32512 8.94893 4.613 9.38659 4.17006L13.3027 0.206704C13.5734 -0.0672506 14.0142 -0.0691335 14.2872 0.202499Z" fill="#8D4B00"/>
</svg>
