<svg width="675" height="506" viewBox="0 0 675 506" fill="none" xmlns="http://www.w3.org/2000/svg">
<g style="mix-blend-mode:overlay" opacity="0.6" clip-path="url(#clip0_80_6540)">
<path d="M484.174 396.861V408.583C479.649 404.78 486.581 396.067 477.194 396.091V251.669C487.447 247.818 479.12 238.43 483.861 231.883V249.96C490.046 249.671 489.902 253.306 489.902 257.422C489.806 301.503 489.806 345.575 489.902 389.64C489.854 393.419 490.985 398.041 484.174 396.861Z" fill="#F4EDE6"/>
<path d="M-66.9583 345.502V362.351L-61.7356 363.483V507.904L-66.7658 509.589L-67.2231 519.843L-68.3061 519.988C-68.5468 518.64 -68.8597 517.316 -69.0041 515.968C-69.3411 512.887 -67.5841 508.891 -72.9994 508.145C-73.6492 508.145 -74.1787 504.703 -74.1787 502.85C-74.1787 468.959 -74.1787 435.052 -74.1787 401.128V363.747L-68.7875 362.303V345.454L-66.9583 345.502Z" fill="#F4EDE6"/>
<path d="M200.076 454.293V472.177L205.804 473.453V617.875L200.461 619.439C200.268 623.098 200.1 626.66 199.883 630.463C195.262 627.021 203.036 617.995 193.168 618.212V474.006C203.445 470.444 195.021 461.129 200.076 454.293Z" fill="#F4EDE6"/>
<path d="M399.19 507.392C399.19 501.11 399.406 494.803 399.045 488.545C399.045 486.74 396.927 485.103 396.085 483.273C394.966 481.383 394.238 479.288 393.943 477.111C393.775 458.65 393.943 440.212 393.943 421.75C393.943 395.674 393.943 369.606 393.943 343.545C393.943 340.127 392.836 336.18 397.962 334.784C398.781 334.591 399.166 331.679 399.19 329.97C399.334 322.749 399.19 315.528 399.19 308.306H400.754C400.754 314.854 400.754 321.401 400.754 327.948C400.754 331.173 399.647 334.88 404.485 336.204C405.231 336.421 405.688 338.972 405.688 340.44C405.688 386.559 405.688 432.678 405.688 478.796C405.688 479.976 405.688 482.046 405.183 482.214C397.746 484.621 401.356 490.711 400.802 495.236C400.573 499.285 400.573 503.343 400.802 507.392H399.19Z" fill="#F4EDE6"/>
<path d="M566.486 314.781L572.936 319.86V365.883C572.936 385.717 572.936 405.558 572.936 425.408C572.936 429.356 574.284 433.929 568.339 435.253C567.665 435.398 567.377 437.251 566.799 438.575C566.534 437.42 566.558 435.855 566.077 435.687C558.857 433.135 561.263 427.069 561.263 422.159C561.151 390.29 561.151 358.421 561.263 326.552C561.263 322.893 559.627 318.199 565.74 317.188C566.173 317.092 566.39 315.094 566.486 314.781Z" fill="#F4EDE6"/>
<path d="M288.886 602.999L282.581 608.126C282.46 607.837 282.171 605.719 281.618 605.719C275.721 604.973 277.141 600.568 277.117 597.054C277.117 563.981 277.117 530.909 277.117 497.836C277.117 493.913 275.625 489.171 281.786 487.943C282.292 487.943 282.46 485.897 282.845 484.621C283.254 485.68 283.423 487.245 284.001 487.414C290.812 489.411 288.814 494.924 288.814 499.449C288.814 532.112 288.814 564.775 288.814 597.439L288.886 602.999Z" fill="#F4EDE6"/>
<path d="M15.2578 535.031L21.708 540.398V646.308C21.708 650.087 23.0317 654.468 17.2073 655.599C16.5334 655.719 16.2205 657.597 15.6429 658.848C15.2578 657.693 15.1134 655.936 14.5598 655.791C8.80756 654.299 9.91469 649.774 9.91469 645.754C9.91469 613.099 9.91469 580.435 9.91469 547.764C9.91469 543.624 8.51875 538.786 14.7283 537.317C15.1134 537.149 15.1615 535.44 15.2578 535.031Z" fill="#F4EDE6"/>
<path d="M684.804 147.06C684.804 156.182 684.612 165.305 684.949 174.428C684.949 176.473 687.019 178.423 687.981 180.493C688.855 181.965 689.405 183.606 689.594 185.307C689.69 213.389 689.69 241.471 689.594 269.553C689.594 271.142 687.668 272.707 686.682 274.367C685.695 276.028 684.876 277.448 684.275 278.363C682.797 277.016 681.407 275.577 680.111 274.054C678.986 272.843 678.241 271.328 677.969 269.698C677.857 241.423 677.857 213.141 677.969 184.85C677.969 183.55 678.522 181.312 679.196 181.143C684.395 179.891 683.168 175.896 683.192 172.478C683.192 164.077 683.192 155.629 683.192 147.276L684.804 147.06Z" fill="#F4EDE6"/>
<path d="M-24.1655 543.287L-18.9668 541.819C-18.7743 537.967 -18.6058 534.26 -18.4373 530.578H-16.6082C-16.6082 532.985 -16.6082 535.271 -16.6082 537.63C-16.6082 539.989 -16.9451 542.444 -13.3349 542.854C-12.5407 542.854 -11.4576 545.261 -11.4335 546.512C-11.3132 569.162 -11.2651 591.813 -11.4335 614.439C-11.4335 616.34 -13.8404 618.218 -15.1882 620.095L-16.8729 619.493V630.301H-18.2448V619.205L-24.0692 618.073L-24.1655 543.287Z" fill="#F4EDE6"/>
<path d="M534.524 310.473V321.954H532.935C532.719 318.464 532.502 314.998 532.262 311.051L527.111 309.654V235.037L532.262 233.881C532.43 230.102 532.623 226.443 532.791 222.809H534.307C534.476 226.395 534.668 230.03 534.861 233.953C539.458 233.953 539.987 236.649 539.963 240.525C539.795 261.779 539.963 283.033 539.963 304.263C539.891 307.777 540.685 311.845 534.524 310.473Z" fill="#F4EDE6"/>
<path d="M250.354 529.176V539.815L248.91 539.935L248.212 528.911L246.431 529.416C245.347 527.009 243.374 524.41 243.35 521.882C243.109 500.46 243.35 479.013 243.181 457.566C243.181 454.124 243.061 450.899 248.163 451.429C248.38 447.481 248.597 443.846 248.789 440.212H250.065V450.369L252.472 449.864C253.603 452.752 255.649 455.641 255.697 458.553C255.985 479.783 255.937 501.013 255.697 522.243C255.697 524.65 253.699 526.937 252.616 529.272L250.354 529.176Z" fill="#F4EDE6"/>
<path d="M231.893 583.261V566.725L226.382 564.872C226.382 549.443 226.262 534.206 226.55 518.97C226.55 517.189 228.957 515.455 231.364 514.372C231.605 511.749 231.821 509.101 232.062 506.477H233.362C233.602 509.077 233.843 511.701 234.108 514.613L239.282 515.744V565.016L233.747 566.484V583.334L231.893 583.261Z" fill="#F4EDE6"/>
<path d="M700.424 212.122C699.582 211.231 697.656 209.329 695.972 207.308C695.262 206.37 694.866 205.233 694.84 204.058C694.744 188.011 694.744 171.964 694.84 155.917C694.84 154.786 695.25 152.788 695.803 152.668C701.772 151.392 699.871 146.723 699.967 143.04C699.928 136.23 700.273 129.423 701.002 122.652C701.002 130.523 701.002 138.418 701.002 146.289C701.002 148.841 700.665 151.633 704.612 152.09C705.382 152.09 706.417 154.497 706.441 155.773C706.562 171.828 706.441 187.859 706.441 203.914C706.515 205.077 706.193 206.231 705.527 207.187C703.649 209.305 701.459 211.159 700.424 212.122Z" fill="#F4EDE6"/>
<path d="M517.532 285.897V303.854H516.232V286.884L513.585 287.413C512.526 285.006 510.6 282.407 510.552 279.879C510.239 266.665 510.263 253.402 510.552 240.212C510.552 238.069 512.406 235.975 513.416 233.857L515.342 234.363L516.112 226.467H517.484C517.628 228.875 517.797 231.282 517.965 233.689L519.674 233.183C520.805 236.072 522.827 238.912 522.899 241.848C523.26 254.654 523.043 267.483 523.068 280.361C523.043 283.61 523.453 287.269 517.532 285.897Z" fill="#F4EDE6"/>
<path d="M-33.552 518.688V536.38H-35.5496C-35.5496 532.288 -35.8144 528.196 -35.5496 524.128C-35.2849 520.06 -36.0069 517.508 -40.8687 517.581C-40.8687 501.718 -40.989 486.289 -40.6761 470.908C-40.6761 469.392 -38.149 467.924 -35.8625 465.324C-35.8625 464.506 -35.5978 461.978 -35.4052 459.475L-34.0574 459.306L-33.3113 467.25C-28.8588 467.033 -28.2089 469.657 -28.2811 473.604C-28.4897 486.442 -28.4897 499.279 -28.2811 512.117C-28.0404 516.016 -28.594 518.784 -33.552 518.688Z" fill="#F4EDE6"/>
<path d="M711.351 102H723V151.801H711.351V102Z" fill="#F4EDE6"/>
<path d="M150.447 541.09C150.447 548.143 150.616 555.196 150.447 562.224C150.327 566.003 150.616 569.012 155.502 568.916V606.754C153.095 609.883 151.242 611.568 150.688 613.446C150.293 615.881 150.236 618.36 150.52 620.811H148.883V610.292C143.492 610.437 142.674 607.645 142.794 603.456C143.083 594.069 143.01 584.658 142.794 575.27C142.794 571.154 142.649 567.544 148.498 567.808V541.066L150.447 541.09Z" fill="#F4EDE6"/>
<path d="M439.6 391.518L434.786 393.034C434.57 396.741 434.377 400.255 434.161 404.419C430.045 400.303 437.145 391.566 426.94 391.999V351.657C432.404 352.283 432.789 348.961 432.596 344.653C432.307 337.865 432.596 331.077 432.596 324.289L434.088 324.121C434.257 325.878 434.57 327.611 434.57 329.368C434.57 335.193 434.377 341.018 434.738 346.795C434.859 348.384 436.736 349.828 437.747 351.368C438.493 352.548 439.696 353.775 439.72 355.003C439.744 366.942 439.6 378.977 439.6 391.518Z" fill="#F4EDE6"/>
<path d="M-99.7148 492.066C-111.749 493.221 -111.749 493.222 -111.749 482.871C-111.749 471.269 -111.316 459.643 -111.917 448.09C-112.033 447.229 -111.953 446.353 -111.684 445.527C-111.414 444.701 -110.962 443.946 -110.361 443.319C-109.759 442.693 -109.024 442.209 -108.21 441.906C-107.396 441.602 -106.525 441.486 -105.66 441.567C-104.799 441.495 -103.934 441.622 -103.13 441.937C-102.326 442.252 -101.605 442.746 -101.022 443.383C-100.439 444.02 -100.009 444.781 -99.7661 445.61C-99.5228 446.438 -99.4723 447.311 -99.6185 448.162C-100.1 462.676 -99.7148 477.239 -99.7148 492.066Z" fill="#F4EDE6"/>
<path d="M422.271 437.757C419.551 437.757 417.457 437.757 415.267 437.757C411.874 437.997 410.67 436.409 410.694 433.159C410.694 419.583 410.694 405.984 410.694 392.408C410.694 386.968 414.329 385.885 422.223 388.846L422.271 437.757Z" fill="#F4EDE6"/>
<path d="M130.928 567.351C140.195 568.627 138.414 574.259 138.438 579.025C138.438 590.41 138.293 601.82 138.438 613.205C138.438 617.441 137.066 618.861 132.95 618.765C128.834 618.669 126.428 618.332 126.5 613.373C126.716 600.375 126.283 587.353 126.789 574.38C127.005 571.539 129.966 568.964 130.928 567.351Z" fill="#F4EDE6"/>
<path d="M333.195 452.512C334.23 457.711 331.246 463.969 339.188 464.138V506.549H326.938C326.938 492.733 326.938 479.759 326.938 466.785C326.938 466.015 327.178 464.619 327.443 464.595C334.688 463.584 332.209 457.639 333.195 452.512Z" fill="#F4EDE6"/>
<path d="M210.305 521.81L215.118 520.486V500.147H216.562V520.221L222.218 521.858V559.119H210.184L210.305 521.81Z" fill="#F4EDE6"/>
<path d="M-52.0603 471.655V453.385H-50.6884V473.339C-44.5511 473.46 -44.3585 477.046 -44.4548 481.379C-44.6955 491.344 -44.4548 501.333 -44.4548 511.707H-57.5478C-57.5478 500.082 -57.6922 488.528 -57.3312 476.998C-57.3552 475.434 -54.5633 474.013 -52.0603 471.655Z" fill="#F4EDE6"/>
<path d="M611.132 335.795V293.6C619.099 293.335 616.186 286.956 617.173 281.564C618.208 286.619 615.825 291.987 621.987 293.937C622.613 294.129 622.661 296.873 622.661 298.438C622.661 308.066 622.54 317.694 622.661 327.322C622.974 335.843 623.744 338.467 611.132 335.795Z" fill="#F4EDE6"/>
<path d="M549.446 369.806V343.016C543.766 343.305 543.453 340.079 543.525 336.084C543.718 326.913 543.525 317.742 543.525 308.234C551.034 308.427 548.604 302.626 550.746 298.847C550.914 300.411 551.059 302 551.299 303.661C551.468 304.816 551.612 306.862 552.045 306.935C558.977 308.138 556.209 313.53 556.377 317.309C556.714 324.097 556.546 330.908 556.377 337.696C556.377 339.189 555.92 341.909 555.415 341.981C549.229 342.727 551.42 347.397 551.299 350.694C551.059 357.097 551.299 363.524 551.299 369.951L549.446 369.806Z" fill="#F4EDE6"/>
<path d="M-7.41421 649.533V615.714L-2.26367 614.727L-1.78231 607.29L-0.386367 607.121L0.263477 614.342C5.29368 614.342 5.41401 617.76 5.29367 621.852C5.02892 630.831 5.29367 639.857 5.29367 649.365C-0.506708 648.931 0.0227932 652.807 0.0709291 656.465C0.0709291 663.277 0.0709291 670.089 0.0709291 676.901H-1.9508C-1.9508 670.041 -1.9508 663.181 -1.9508 656.321C-1.8786 652.47 -1.95078 649.004 -7.41421 649.533Z" fill="#F4EDE6"/>
<path d="M265.324 586.583V560.515C258.946 560.515 259.403 556.255 259.499 551.922C259.692 543.329 259.499 534.736 259.499 525.709L264.746 524.217C264.987 521.81 265.228 519.403 265.468 516.803L266.672 516.659L267.442 524.169C272.4 524.169 272.881 527.25 272.737 531.39C272.448 540.392 272.737 549.395 272.737 558.589L267.033 560.395V586.439L265.324 586.583Z" fill="#F4EDE6"/>
<path d="M506.437 351.32H493.681V315.937C493.681 315.576 493.68 314.926 494.017 314.854C503.187 311.821 497.58 304.19 499 298.775C499.131 296.76 499.698 294.797 500.66 293.022V312.519L506.437 314.517V351.32Z" fill="#F4EDE6"/>
<path d="M60.0001 602.016C65.2229 600.186 65.2229 600.186 65.993 589.98C66.9798 594.795 64.549 600.21 70.8066 602.16C71.5287 602.377 71.5527 605.458 71.5527 607.215C71.5527 616.65 71.1436 626.086 71.7212 635.473C72.2507 644.042 69.3144 647.244 60.0723 643.056L60.0001 602.016Z" fill="#F4EDE6"/>
<path d="M627.811 248.131C630.627 248.131 632.769 248.275 634.887 248.131C638.185 247.866 639.701 249.142 639.701 252.536C639.701 263.127 639.701 273.742 639.701 284.332C639.701 285.127 639.701 286.427 639.34 286.74C630.892 290.687 635.994 298.51 633.804 305.611C633.684 302.818 633.564 301.254 633.515 299.665C633.467 298.077 633.515 296.464 633.515 294.851C633.395 291.963 634.189 288.593 629.592 288.16C628.991 288.16 628.1 286.378 628.076 285.416C627.787 273.068 627.811 261.032 627.811 248.131Z" fill="#F4EDE6"/>
<path d="M76.8958 617.804C88.3762 616.624 88.3763 616.624 88.3763 627.023C88.3763 635.423 88.5447 643.872 88.2318 652.224C88.2318 654.078 86.2823 655.835 85.2715 657.664C84.3089 658.962 83.6061 660.433 83.2016 661.997C83.1838 665.817 82.8213 669.627 82.1186 673.382C82.1186 671.457 82.1186 669.531 82.1186 667.605C82.3838 665.195 82.2701 662.759 81.7816 660.384C81.204 658.747 79.086 657.664 76.968 655.57L76.8958 617.804Z" fill="#F4EDE6"/>
<path d="M350.548 475.499C347.179 469.939 354.808 461.057 344.146 458.216V419.704L348.19 418.982C353.798 418.091 356.108 420.041 355.795 426.082C355.314 435.085 355.795 444.135 355.651 453.162C355.651 455.809 356.397 458.914 352.209 459.709C351.439 459.853 350.717 462.284 350.621 463.68C350.284 467.459 350.548 471.262 350.548 475.499Z" fill="#F4EDE6"/>
<path d="M160.147 537.961H171.772V571.948H160.147V537.961Z" fill="#F4EDE6"/>
<path d="M650.194 288.449C650.194 284.405 650.315 281.227 650.194 278.219C650.074 275.21 651.326 271.431 646.175 270.998C645.597 270.998 644.683 269.192 644.683 268.229C644.563 258.818 644.683 249.431 644.683 240.019C644.683 239.61 644.683 238.936 644.851 238.864C653.973 235.349 648.702 227.021 651.253 219.487C651.253 224.47 651.253 227.791 651.253 231.113C651.253 233.809 650.531 236.818 654.695 237.612C655.417 237.732 656.091 240.236 656.115 241.632C656.235 250.056 656.115 258.481 656.115 266.857C656.115 267.844 656.26 269.505 655.802 269.722C647.595 273.693 652.601 281.179 651.109 286.884C650.844 287.428 650.539 287.951 650.194 288.449Z" fill="#F4EDE6"/>
<path d="M99.9529 612.218C99.9529 617.249 99.9529 620.426 99.9529 623.627C99.9529 626.275 99.1105 629.38 103.322 630.126C104.02 630.271 104.791 632.341 104.791 633.544C104.911 642.33 104.935 651.14 104.791 660.022C104.474 661.43 103.84 662.747 102.937 663.873C101.999 665.486 100.29 666.978 100.073 668.687C99.9765 672.48 99.6065 676.26 98.9661 680C98.9661 676.751 98.9661 673.501 98.9661 670.372C98.9661 667.508 99.6882 664.138 94.9949 663.777C94.3451 663.777 93.4305 661.37 93.4064 659.901C93.262 651.308 93.4064 642.715 93.4064 634.122C93.4064 633.135 93.4064 631.402 93.8156 631.258C102.745 628.177 97.7627 620.619 99.1105 615.155C99.1105 614.529 99.279 614.168 99.9529 612.218Z" fill="#F4EDE6"/>
<path d="M366.145 434.339C366.145 430.824 366.145 427.286 366.145 423.748C366.145 420.931 366.313 418.212 362.486 417.201C361.523 416.96 360.609 414.408 360.585 412.892C360.392 404.708 360.464 396.5 360.585 388.316C360.585 387.329 360.585 385.62 360.922 385.452C369.658 382.01 365.037 374.331 366.385 368.603C366.639 368.168 366.921 367.75 367.228 367.351C367.228 371.202 367.228 374.283 367.228 377.364C367.228 380.445 366.481 383.43 370.814 384.585C371.68 384.802 372.354 387.57 372.402 389.183C372.595 395.369 372.643 401.579 372.402 407.765C372.258 411.833 374.183 416.791 368.142 418.813C367.396 419.054 367.276 421.678 367.228 423.194C367.083 426.949 367.228 430.728 367.228 434.483L366.145 434.339Z" fill="#F4EDE6"/>
<path d="M-139.331 472.449V461.906C-139.331 459.114 -139.114 456.346 -142.965 455.335C-143.952 455.07 -144.866 452.567 -144.914 451.05C-145.107 442.866 -144.914 434.658 -144.914 426.475C-144.914 425.488 -144.914 423.755 -144.602 423.61C-135.48 420.144 -140.967 411.936 -138.296 404.859C-138.296 409.288 -138.296 412.369 -138.296 415.426C-138.296 418.483 -139.09 421.492 -134.758 422.647C-133.867 422.864 -133.169 425.632 -133.121 427.221C-132.953 435.019 -133.121 442.818 -133.121 450.593C-133.121 451.796 -133.121 453.746 -133.602 454.035C-141.689 458.127 -137.213 465.541 -138.416 471.414C-138.503 471.79 -138.615 472.16 -138.753 472.521L-139.331 472.449Z" fill="#F4EDE6"/>
<path d="M455.725 336.324H444.125V302.963H455.725V336.324Z" fill="#F4EDE6"/>
<path d="M300.246 473.886V491.722L305.878 493.263V513.073C296.612 513.073 302.052 520.919 298.947 526.287C298.706 521.473 298.538 518.127 298.345 514.252L293.219 513.048V493.335C298.032 492.95 299.091 489.772 298.658 485.295C298.297 481.589 298.658 477.786 298.658 474.031L300.246 473.886Z" fill="#F4EDE6"/>
<path d="M584.417 303.155C584.417 307.296 584.417 311.46 584.417 315.6C584.417 321.208 584.417 321.208 589.784 323.038V342.294C580.807 342.559 586.15 350.189 583.671 354.064C580.325 350.742 586.655 342.51 577.317 342.51V322.725C582.539 322.725 582.949 319.066 582.66 314.733C582.395 310.81 582.66 306.862 582.66 302.915L584.417 303.155Z" fill="#F4EDE6"/>
<path d="M25.9921 562.856V543.07C31.1908 543.263 31.7443 539.941 31.4555 535.681C31.1667 531.42 31.4555 527.425 31.4555 523.284H33.2606C33.2606 527.786 33.4532 532.311 33.2606 536.788C33.044 540.663 34.0789 543.07 38.6278 542.83V562.543C29.2413 562.543 35.3546 570.775 32.4905 574.578C28.8562 571.305 35.7396 562.976 25.9921 562.856Z" fill="#F4EDE6"/>
<path d="M116.728 599.677C116.728 601.94 116.728 604.203 116.728 606.441C116.728 607.597 116.728 609.546 117.378 609.811C126.043 613.542 119.905 620.956 121.614 626.371C121.614 626.708 121.614 627.431 121.397 627.503C114.707 629.501 117.33 635.542 115.116 639.899C115.317 637.655 115.277 635.395 114.995 633.159C114.658 631.643 113.19 630.367 112.3 628.947C111.409 627.527 110.326 626.54 110.23 625.24C109.965 621.654 110.23 618.019 110.23 614.433C110.23 613.638 110.23 612.218 110.519 612.026C117.089 610.052 114.538 604.058 116.728 599.677Z" fill="#F4EDE6"/>
<path d="M666.368 247.264C666.368 245.074 666.368 242.883 666.368 240.717C666.368 239.538 666.368 237.588 665.742 237.347C657.03 233.616 663.191 226.203 661.482 220.787C661.482 220.45 661.482 219.704 661.699 219.656C668.294 217.61 665.815 211.616 667.981 207.211C667.78 209.448 667.82 211.699 668.101 213.927C668.767 215.467 669.677 216.889 670.797 218.139C671.543 219.343 672.746 220.546 672.866 221.822C673.155 225.408 672.866 229.043 672.866 232.654C672.866 233.448 672.866 234.844 672.578 235.061C666.055 236.962 668.51 243.028 666.368 247.264Z" fill="#F4EDE6"/>
<path d="M383.329 393.202C383.04 390.41 383.69 385.211 382.246 384.561C374.352 380.999 378.227 374.404 377.432 369.108C377.264 368.025 377.697 365.883 378.082 365.835C385.014 364.703 382.39 358.999 383.473 354.088C384.869 358.902 382.198 364.077 388.48 366.436C391.103 367.423 387.589 380.18 385.591 383.43C383.834 386.198 383.979 390.049 383.329 393.202Z" fill="#F4EDE6"/>
<path d="M-122.242 468.694C-123.35 465.083 -120.437 459.667 -127.321 457.958C-129.968 457.309 -127.321 443.179 -125.227 440.82C-123.572 438.173 -122.323 435.293 -121.52 432.275C-120.822 435.236 -123.109 439.978 -117.333 442.433C-114.517 443.637 -117.67 456.538 -119.739 459.282C-121.448 461.665 -121.448 465.348 -122.242 468.694Z" fill="#F4EDE6"/>
<path d="M-90.9059 491.849V481.836L-84.3354 476.709L-78.3184 482.125V492.355C-83.4449 492.09 -83.7337 495.46 -83.6134 499.576C-83.3967 509.565 -83.6134 519.578 -83.6134 529.568V535.272H-85.4184V508.602C-85.185 505.21 -85.2414 501.804 -85.5869 498.421C-86.3563 496.012 -87.4667 493.726 -88.8842 491.633L-90.9059 491.849Z" fill="#F4EDE6"/>
<path d="M181.928 623.411V581.817L176.465 580.566V570.071L182.843 565.064L189.028 570.336V580.614C183.661 580.229 183.469 583.599 183.565 587.835C183.782 599.87 183.565 611.713 183.565 623.676L181.928 623.411Z" fill="#F4EDE6"/>
<path d="M460.346 331.895V321.978L467.037 316.081C468.024 317.188 469.877 319.283 471.851 321.353L473.102 320.534V331.823C467.807 331.582 467.615 335.025 467.687 339.237C467.904 349.443 467.687 359.673 467.687 369.878V375.655H465.882V355.508C465.882 350.117 465.738 344.677 465.882 339.285C466.075 335.193 466.075 331.51 460.346 331.895Z" fill="#F4EDE6"/>
<path d="M316.709 505.105C322.076 507.512 324.122 512.038 322.1 518.2C311.847 522.677 319.982 532.305 316.083 538.972V533.027C316.083 530.812 315.963 528.598 316.083 526.407C316.348 522.316 316.348 518.512 310.379 519.186V509.245L316.709 505.105Z" fill="#F4EDE6"/>
<path d="M593.875 339.309L600.518 334.495L606.319 339.309V347.661C595.175 351.946 603.912 361.839 599.989 367.856C599.989 364.848 600.157 361.406 599.989 358.012C599.724 354.233 601.818 349.515 595.32 348.022C594.116 347.686 594.236 341.764 593.875 339.309Z" fill="#F4EDE6"/>
<path d="M48.7604 608.806C48.7604 604.545 48.5438 600.357 48.7604 596.193C48.977 592.029 48.4475 588.586 43.0804 588.683V579.344L49.338 575.059L55.0903 579.608V587.768C44.5244 592.654 52.3225 602.186 48.7604 608.806Z" fill="#F4EDE6"/>
</g>
<defs>
<clipPath id="clip0_80_6540">
<rect width="675" height="506" fill="white"/>
</clipPath>
</defs>
</svg>
