<svg width="675" height="506" viewBox="0 0 675 506" fill="none" xmlns="http://www.w3.org/2000/svg">
<g style="mix-blend-mode:overlay" opacity="0.3" clip-path="url(#clip0_80_6541)">
<path d="M396.174 395.861V407.583C391.649 403.78 398.581 395.067 389.194 395.091V250.669C399.447 246.818 391.12 237.43 395.861 230.883V248.96C402.046 248.671 401.902 252.306 401.902 256.422C401.806 300.503 401.806 344.575 401.902 388.64C401.854 392.419 402.985 397.041 396.174 395.861Z" fill="white"/>
<path d="M-154.958 344.502V361.351L-149.736 362.483V506.904L-154.766 508.589L-155.223 518.843L-156.306 518.988C-156.547 517.64 -156.86 516.316 -157.004 514.968C-157.341 511.887 -155.584 507.891 -160.999 507.145C-161.649 507.145 -162.179 503.703 -162.179 501.85C-162.179 467.959 -162.179 434.052 -162.179 400.128V362.747L-156.787 361.303V344.454L-154.958 344.502Z" fill="white"/>
<path d="M112.076 453.293V471.177L117.804 472.453V616.875L112.461 618.439C112.268 622.098 112.1 625.66 111.883 629.463C107.262 626.021 115.036 616.995 105.168 617.212V473.006C115.445 469.444 107.021 460.129 112.076 453.293Z" fill="white"/>
<path d="M311.19 506.392C311.19 500.11 311.406 493.803 311.045 487.545C311.045 485.74 308.927 484.103 308.085 482.273C306.966 480.383 306.238 478.288 305.943 476.111C305.775 457.65 305.943 439.212 305.943 420.75C305.943 394.674 305.943 368.606 305.943 342.545C305.943 339.127 304.836 335.18 309.962 333.784C310.781 333.591 311.166 330.679 311.19 328.97C311.334 321.749 311.19 314.528 311.19 307.306H312.754C312.754 313.854 312.754 320.401 312.754 326.948C312.754 330.173 311.647 333.88 316.485 335.204C317.231 335.421 317.688 337.972 317.688 339.44C317.688 385.559 317.688 431.678 317.688 477.796C317.688 478.976 317.688 481.046 317.183 481.214C309.746 483.621 313.356 489.711 312.802 494.236C312.573 498.285 312.573 502.343 312.802 506.392H311.19Z" fill="white"/>
<path d="M478.486 313.781L484.936 318.86V364.883C484.936 384.717 484.936 404.558 484.936 424.408C484.936 428.356 486.284 432.929 480.339 434.253C479.665 434.398 479.377 436.251 478.799 437.575C478.534 436.42 478.558 434.855 478.077 434.687C470.857 432.135 473.263 426.069 473.263 421.159C473.151 389.29 473.151 357.421 473.263 325.552C473.263 321.893 471.627 317.199 477.74 316.188C478.173 316.092 478.39 314.094 478.486 313.781Z" fill="white"/>
<path d="M200.886 601.999L194.581 607.126C194.46 606.837 194.171 604.719 193.618 604.719C187.721 603.973 189.141 599.568 189.117 596.054C189.117 562.981 189.117 529.909 189.117 496.836C189.117 492.913 187.625 488.171 193.786 486.943C194.292 486.943 194.46 484.897 194.845 483.621C195.254 484.68 195.423 486.245 196.001 486.414C202.812 488.411 200.814 493.924 200.814 498.449C200.814 531.112 200.814 563.775 200.814 596.439L200.886 601.999Z" fill="white"/>
<path d="M-72.7422 534.031L-66.292 539.398V645.308C-66.292 649.087 -64.9683 653.468 -70.7927 654.599C-71.4666 654.719 -71.7795 656.597 -72.3571 657.848C-72.7422 656.693 -72.8866 654.936 -73.4402 654.791C-79.1924 653.299 -78.0853 648.774 -78.0853 644.754C-78.0853 612.099 -78.0853 579.435 -78.0853 546.764C-78.0853 542.624 -79.4812 537.786 -73.2717 536.317C-72.8866 536.149 -72.8385 534.44 -72.7422 534.031Z" fill="white"/>
<path d="M596.804 146.06C596.804 155.182 596.612 164.305 596.949 173.428C596.949 175.473 599.019 177.423 599.981 179.493C600.855 180.965 601.405 182.606 601.594 184.307C601.69 212.389 601.69 240.471 601.594 268.553C601.594 270.142 599.668 271.707 598.682 273.367C597.695 275.028 596.876 276.448 596.275 277.363C594.797 276.016 593.407 274.577 592.111 273.054C590.986 271.843 590.241 270.328 589.969 268.698C589.857 240.423 589.857 212.141 589.969 183.85C589.969 182.55 590.522 180.312 591.196 180.143C596.395 178.891 595.168 174.896 595.192 171.478C595.192 163.077 595.192 154.629 595.192 146.276L596.804 146.06Z" fill="white"/>
<path d="M-112.166 542.287L-106.967 540.819C-106.774 536.967 -106.606 533.26 -106.437 529.578H-104.608C-104.608 531.985 -104.608 534.271 -104.608 536.63C-104.608 538.989 -104.945 541.444 -101.335 541.854C-100.541 541.854 -99.4576 544.261 -99.4335 545.512C-99.3132 568.162 -99.2651 590.813 -99.4335 613.439C-99.4335 615.34 -101.84 617.218 -103.188 619.095L-104.873 618.493V629.301H-106.245V618.205L-112.069 617.073L-112.166 542.287Z" fill="white"/>
<path d="M446.524 309.473V320.954H444.935C444.719 317.464 444.502 313.998 444.262 310.051L439.111 308.654V234.037L444.262 232.881C444.43 229.102 444.623 225.443 444.791 221.809H446.307C446.476 225.395 446.668 229.03 446.861 232.953C451.458 232.953 451.987 235.649 451.963 239.525C451.795 260.779 451.963 282.033 451.963 303.263C451.891 306.777 452.685 310.845 446.524 309.473Z" fill="white"/>
<path d="M162.354 528.176V538.815L160.91 538.935L160.212 527.911L158.431 528.416C157.347 526.009 155.374 523.41 155.35 520.882C155.109 499.46 155.35 478.013 155.181 456.566C155.181 453.124 155.061 449.899 160.163 450.429C160.38 446.481 160.597 442.846 160.789 439.212H162.065V449.369L164.472 448.864C165.603 451.752 167.649 454.641 167.697 457.553C167.985 478.783 167.937 500.013 167.697 521.243C167.697 523.65 165.699 525.937 164.616 528.272L162.354 528.176Z" fill="white"/>
<path d="M143.893 582.261V565.725L138.382 563.872C138.382 548.443 138.262 533.206 138.55 517.97C138.55 516.189 140.957 514.455 143.364 513.372C143.605 510.749 143.821 508.101 144.062 505.477H145.362C145.602 508.077 145.843 510.701 146.108 513.613L151.282 514.744V564.016L145.747 565.484V582.334L143.893 582.261Z" fill="white"/>
<path d="M612.424 211.122C611.582 210.231 609.656 208.329 607.972 206.308C607.262 205.37 606.866 204.233 606.84 203.058C606.744 187.011 606.744 170.964 606.84 154.917C606.84 153.786 607.25 151.788 607.803 151.668C613.772 150.392 611.871 145.723 611.967 142.04C611.928 135.23 612.273 128.423 613.002 121.652C613.002 129.523 613.002 137.418 613.002 145.289C613.002 147.841 612.665 150.633 616.612 151.09C617.382 151.09 618.417 153.497 618.441 154.773C618.562 170.828 618.441 186.859 618.441 202.914C618.515 204.077 618.193 205.231 617.527 206.187C615.649 208.305 613.459 210.159 612.424 211.122Z" fill="white"/>
<path d="M429.532 284.897V302.854H428.232V285.884L425.585 286.413C424.526 284.006 422.6 281.407 422.552 278.879C422.239 265.665 422.263 252.402 422.552 239.212C422.552 237.069 424.406 234.975 425.416 232.857L427.342 233.363L428.112 225.467H429.484C429.628 227.875 429.797 230.282 429.965 232.689L431.674 232.183C432.805 235.072 434.827 237.912 434.899 240.848C435.26 253.654 435.043 266.483 435.068 279.361C435.043 282.61 435.453 286.269 429.532 284.897Z" fill="white"/>
<path d="M-121.552 517.688V535.38H-123.55C-123.55 531.288 -123.814 527.196 -123.55 523.128C-123.285 519.06 -124.007 516.508 -128.869 516.581C-128.869 500.718 -128.989 485.289 -128.676 469.908C-128.676 468.392 -126.149 466.924 -123.863 464.324C-123.863 463.506 -123.598 460.978 -123.405 458.475L-122.057 458.306L-121.311 466.25C-116.859 466.033 -116.209 468.657 -116.281 472.604C-116.49 485.442 -116.49 498.279 -116.281 511.117C-116.04 515.016 -116.594 517.784 -121.552 517.688Z" fill="white"/>
<path d="M623.351 101H635V150.801H623.351V101Z" fill="white"/>
<path d="M62.4475 540.09C62.4475 547.143 62.616 554.196 62.4475 561.224C62.3272 565.003 62.616 568.012 67.5018 567.916V605.754C65.095 608.883 63.2418 610.568 62.6882 612.446C62.2928 614.881 62.2361 617.36 62.5197 619.811H60.8831V609.292C55.4919 609.437 54.6735 606.645 54.7939 602.456C55.0827 593.069 55.0105 583.658 54.7939 574.27C54.7939 570.154 54.6495 566.544 60.498 566.808V540.066L62.4475 540.09Z" fill="white"/>
<path d="M351.6 390.518L346.786 392.034C346.57 395.741 346.377 399.255 346.161 403.419C342.045 399.303 349.145 390.566 338.94 390.999V350.657C344.404 351.283 344.789 347.961 344.596 343.653C344.307 336.865 344.596 330.077 344.596 323.289L346.088 323.121C346.257 324.878 346.57 326.611 346.57 328.368C346.57 334.193 346.377 340.018 346.738 345.795C346.859 347.384 348.736 348.828 349.747 350.368C350.493 351.548 351.696 352.775 351.72 354.003C351.744 365.942 351.6 377.977 351.6 390.518Z" fill="white"/>
<path d="M-187.715 491.066C-199.749 492.221 -199.749 492.222 -199.749 481.871C-199.749 470.269 -199.316 458.643 -199.917 447.09C-200.033 446.229 -199.953 445.353 -199.684 444.527C-199.414 443.701 -198.962 442.946 -198.361 442.319C-197.759 441.693 -197.024 441.209 -196.21 440.906C-195.396 440.602 -194.525 440.486 -193.66 440.567C-192.799 440.495 -191.934 440.622 -191.13 440.937C-190.326 441.252 -189.605 441.746 -189.022 442.383C-188.439 443.02 -188.009 443.781 -187.766 444.61C-187.523 445.438 -187.472 446.311 -187.619 447.162C-188.1 461.676 -187.715 476.239 -187.715 491.066Z" fill="white"/>
<path d="M334.271 436.757C331.551 436.757 329.457 436.757 327.267 436.757C323.874 436.997 322.67 435.409 322.694 432.159C322.694 418.583 322.694 404.984 322.694 391.408C322.694 385.968 326.329 384.885 334.223 387.846L334.271 436.757Z" fill="white"/>
<path d="M42.9284 566.351C52.1945 567.627 50.4135 573.259 50.4376 578.025C50.4376 589.41 50.2932 600.82 50.4376 612.205C50.4376 616.441 49.0657 617.861 44.9501 617.765C40.8345 617.669 38.4277 617.332 38.4999 612.373C38.7165 599.375 38.2833 586.353 38.7887 573.38C39.0053 570.539 41.9657 567.964 42.9284 566.351Z" fill="white"/>
<path d="M245.195 451.512C246.23 456.711 243.246 462.969 251.188 463.138V505.549H238.938C238.938 491.733 238.938 478.759 238.938 465.785C238.938 465.015 239.178 463.619 239.443 463.595C246.688 462.584 244.209 456.639 245.195 451.512Z" fill="white"/>
<path d="M122.305 520.81L127.118 519.486V499.147H128.562V519.221L134.218 520.858V558.119H122.184L122.305 520.81Z" fill="white"/>
<path d="M-140.06 470.655V452.385H-138.688V472.339C-132.551 472.46 -132.359 476.046 -132.455 480.379C-132.695 490.344 -132.455 500.333 -132.455 510.707H-145.548C-145.548 499.082 -145.692 487.528 -145.331 475.998C-145.355 474.434 -142.563 473.013 -140.06 470.655Z" fill="white"/>
<path d="M523.132 334.795V292.6C531.099 292.335 528.186 285.956 529.173 280.564C530.208 285.619 527.825 290.987 533.987 292.937C534.613 293.129 534.661 295.873 534.661 297.438C534.661 307.066 534.54 316.694 534.661 326.322C534.974 334.843 535.744 337.467 523.132 334.795Z" fill="white"/>
<path d="M461.446 368.806V342.016C455.766 342.305 455.453 339.079 455.525 335.084C455.718 325.913 455.525 316.742 455.525 307.234C463.034 307.427 460.604 301.626 462.746 297.847C462.914 299.411 463.059 301 463.299 302.661C463.468 303.816 463.612 305.862 464.045 305.935C470.977 307.138 468.209 312.53 468.377 316.309C468.714 323.097 468.546 329.908 468.377 336.696C468.377 338.189 467.92 340.909 467.415 340.981C461.229 341.727 463.42 346.397 463.299 349.694C463.059 356.097 463.299 362.524 463.299 368.951L461.446 368.806Z" fill="white"/>
<path d="M-95.4142 648.533V614.714L-90.2637 613.727L-89.7823 606.29L-88.3864 606.121L-87.7365 613.342C-82.7063 613.342 -82.586 616.76 -82.7063 620.852C-82.9711 629.831 -82.7063 638.857 -82.7063 648.365C-88.5067 647.931 -87.9772 651.807 -87.9291 655.465C-87.9291 662.277 -87.9291 669.089 -87.9291 675.901H-89.9508C-89.9508 669.041 -89.9508 662.181 -89.9508 655.321C-89.8786 651.47 -89.9508 648.004 -95.4142 648.533Z" fill="white"/>
<path d="M177.324 585.583V559.515C170.946 559.515 171.403 555.255 171.499 550.922C171.692 542.329 171.499 533.736 171.499 524.709L176.746 523.217C176.987 520.81 177.228 518.403 177.468 515.803L178.672 515.659L179.442 523.169C184.4 523.169 184.881 526.25 184.737 530.39C184.448 539.392 184.737 548.395 184.737 557.589L179.033 559.395V585.439L177.324 585.583Z" fill="white"/>
<path d="M418.437 350.32H405.681V314.937C405.681 314.576 405.68 313.926 406.017 313.854C415.187 310.821 409.58 303.19 411 297.775C411.131 295.76 411.698 293.797 412.66 292.022V311.519L418.437 313.517V350.32Z" fill="white"/>
<path d="M-27.9999 601.016C-22.7771 599.186 -22.7771 599.186 -22.007 588.98C-21.0202 593.795 -23.451 599.21 -17.1934 601.16C-16.4713 601.377 -16.4473 604.458 -16.4473 606.215C-16.4473 615.65 -16.8564 625.086 -16.2788 634.473C-15.7493 643.042 -18.6856 646.244 -27.9277 642.056L-27.9999 601.016Z" fill="white"/>
<path d="M539.811 247.131C542.627 247.131 544.769 247.275 546.887 247.131C550.185 246.866 551.701 248.142 551.701 251.536C551.701 262.127 551.701 272.742 551.701 283.332C551.701 284.127 551.701 285.427 551.34 285.74C542.892 289.687 547.994 297.51 545.804 304.611C545.684 301.818 545.564 300.254 545.515 298.665C545.467 297.077 545.515 295.464 545.515 293.851C545.395 290.963 546.189 287.593 541.592 287.16C540.991 287.16 540.1 285.378 540.076 284.416C539.787 272.068 539.811 260.032 539.811 247.131Z" fill="white"/>
<path d="M-11.1042 616.804C0.376239 615.624 0.376266 615.624 0.376266 626.023C0.376266 634.423 0.544708 642.872 0.231825 651.224C0.231825 653.078 -1.71768 654.835 -2.72853 656.664C-3.69109 657.962 -4.39391 659.433 -4.79837 660.997C-4.81622 664.817 -5.17872 668.627 -5.88143 672.382C-5.88143 670.457 -5.88143 668.531 -5.88143 666.605C-5.61625 664.195 -5.72994 661.759 -6.21838 659.384C-6.79601 657.747 -8.91399 656.664 -11.032 654.57L-11.1042 616.804Z" fill="white"/>
<path d="M262.548 474.499C259.179 468.939 266.808 460.057 256.146 457.216V418.704L260.19 417.982C265.798 417.091 268.108 419.041 267.795 425.082C267.314 434.085 267.795 443.135 267.651 452.162C267.651 454.809 268.397 457.914 264.209 458.709C263.439 458.853 262.717 461.284 262.621 462.68C262.284 466.459 262.548 470.262 262.548 474.499Z" fill="white"/>
<path d="M72.1469 536.961H83.7717V570.948H72.1469V536.961Z" fill="white"/>
<path d="M562.194 287.449C562.194 283.405 562.315 280.227 562.194 277.219C562.074 274.21 563.326 270.431 558.175 269.998C557.597 269.998 556.683 268.192 556.683 267.229C556.563 257.818 556.683 248.431 556.683 239.019C556.683 238.61 556.683 237.936 556.851 237.864C565.973 234.349 560.702 226.021 563.253 218.487C563.253 223.47 563.253 226.791 563.253 230.113C563.253 232.809 562.531 235.818 566.695 236.612C567.417 236.732 568.091 239.236 568.115 240.632C568.235 249.056 568.115 257.481 568.115 265.857C568.115 266.844 568.26 268.505 567.802 268.722C559.595 272.693 564.601 280.179 563.109 285.884C562.844 286.428 562.539 286.951 562.194 287.449Z" fill="white"/>
<path d="M11.9529 611.218C11.9529 616.249 11.9529 619.426 11.9529 622.627C11.9529 625.275 11.1105 628.38 15.3224 629.126C16.0204 629.271 16.7906 631.341 16.7906 632.544C16.9109 641.33 16.935 650.14 16.7906 659.022C16.4739 660.43 15.84 661.747 14.9373 662.873C13.9987 664.486 12.2898 665.978 12.0732 667.687C11.9765 671.48 11.6065 675.26 10.9661 679C10.9661 675.751 10.9661 672.501 10.9661 669.372C10.9661 666.508 11.6882 663.138 6.99493 662.777C6.34509 662.777 5.43051 660.37 5.40644 658.901C5.26203 650.308 5.40644 641.715 5.40644 633.122C5.40644 632.135 5.40643 630.402 5.81559 630.258C14.7448 627.177 9.76272 619.619 11.1105 614.155C11.1105 613.529 11.279 613.168 11.9529 611.218Z" fill="white"/>
<path d="M278.145 433.339C278.145 429.824 278.145 426.286 278.145 422.748C278.145 419.931 278.313 417.212 274.486 416.201C273.523 415.96 272.609 413.408 272.585 411.892C272.392 403.708 272.464 395.5 272.585 387.316C272.585 386.329 272.585 384.62 272.922 384.452C281.658 381.01 277.037 373.331 278.385 367.603C278.639 367.168 278.921 366.75 279.228 366.351C279.228 370.202 279.228 373.283 279.228 376.364C279.228 379.445 278.481 382.43 282.814 383.585C283.68 383.802 284.354 386.57 284.402 388.183C284.595 394.369 284.643 400.579 284.402 406.765C284.258 410.833 286.183 415.791 280.142 417.813C279.396 418.054 279.276 420.678 279.228 422.194C279.083 425.949 279.228 429.728 279.228 433.483L278.145 433.339Z" fill="white"/>
<path d="M-227.331 471.449V460.906C-227.331 458.114 -227.114 455.346 -230.965 454.335C-231.952 454.07 -232.866 451.567 -232.914 450.05C-233.107 441.866 -232.914 433.658 -232.914 425.475C-232.914 424.488 -232.914 422.755 -232.602 422.61C-223.48 419.144 -228.967 410.936 -226.296 403.859C-226.296 408.288 -226.296 411.369 -226.296 414.426C-226.296 417.483 -227.09 420.492 -222.758 421.647C-221.867 421.864 -221.169 424.632 -221.121 426.221C-220.953 434.019 -221.121 441.818 -221.121 449.593C-221.121 450.796 -221.121 452.746 -221.602 453.035C-229.689 457.127 -225.213 464.541 -226.416 470.414C-226.503 470.79 -226.615 471.16 -226.753 471.521L-227.331 471.449Z" fill="white"/>
<path d="M367.725 335.324H356.125V301.963H367.725V335.324Z" fill="white"/>
<path d="M212.246 472.886V490.722L217.878 492.263V512.073C208.612 512.073 214.052 519.919 210.947 525.287C210.706 520.473 210.538 517.127 210.345 513.252L205.219 512.048V492.335C210.032 491.95 211.091 488.772 210.658 484.295C210.297 480.589 210.658 476.786 210.658 473.031L212.246 472.886Z" fill="white"/>
<path d="M496.417 302.155C496.417 306.296 496.417 310.46 496.417 314.6C496.417 320.208 496.417 320.208 501.784 322.038V341.294C492.807 341.559 498.15 349.189 495.671 353.064C492.325 349.742 498.655 341.51 489.317 341.51V321.725C494.539 321.725 494.949 318.066 494.66 313.733C494.395 309.81 494.66 305.862 494.66 301.915L496.417 302.155Z" fill="white"/>
<path d="M-62.0079 561.856V542.07C-56.8092 542.263 -56.2557 538.941 -56.5445 534.681C-56.8333 530.42 -56.5445 526.425 -56.5445 522.284H-54.7394C-54.7394 526.786 -54.5468 531.311 -54.7394 535.788C-54.956 539.663 -53.9211 542.07 -49.3722 541.83V561.543C-58.7587 561.543 -52.6454 569.775 -55.5095 573.578C-59.1438 570.305 -52.2604 561.976 -62.0079 561.856Z" fill="white"/>
<path d="M28.7283 598.677C28.7283 600.94 28.7283 603.203 28.7283 605.441C28.7283 606.597 28.7283 608.546 29.3781 608.811C38.0426 612.542 31.9053 619.956 33.6141 625.371C33.6141 625.708 33.6141 626.431 33.3974 626.503C26.7066 628.501 29.33 634.542 27.1157 638.899C27.3173 636.655 27.2769 634.395 26.9954 632.159C26.6585 630.643 25.1903 629.367 24.2998 627.947C23.4092 626.527 22.3262 625.54 22.2299 624.24C21.9652 620.654 22.2299 617.019 22.2299 613.433C22.2299 612.638 22.23 611.218 22.5188 611.026C29.0893 609.052 26.5381 603.058 28.7283 598.677Z" fill="white"/>
<path d="M578.368 246.264C578.368 244.074 578.368 241.883 578.368 239.717C578.368 238.538 578.368 236.588 577.742 236.347C569.03 232.616 575.191 225.203 573.482 219.787C573.482 219.45 573.482 218.704 573.699 218.656C580.294 216.61 577.815 210.616 579.981 206.211C579.78 208.448 579.82 210.699 580.101 212.927C580.767 214.467 581.677 215.889 582.797 217.139C583.543 218.343 584.746 219.546 584.866 220.822C585.155 224.408 584.866 228.043 584.866 231.654C584.866 232.448 584.866 233.844 584.578 234.061C578.055 235.962 580.51 242.028 578.368 246.264Z" fill="white"/>
<path d="M295.329 392.202C295.04 389.41 295.69 384.211 294.246 383.561C286.352 379.999 290.227 373.404 289.432 368.108C289.264 367.025 289.697 364.883 290.082 364.835C297.014 363.703 294.39 357.999 295.473 353.088C296.869 357.902 294.198 363.077 300.48 365.436C303.103 366.423 299.589 379.18 297.591 382.43C295.834 385.198 295.979 389.049 295.329 392.202Z" fill="white"/>
<path d="M-210.242 467.694C-211.35 464.083 -208.437 458.667 -215.321 456.958C-217.968 456.309 -215.321 442.179 -213.227 439.82C-211.572 437.173 -210.323 434.293 -209.52 431.275C-208.822 434.236 -211.109 438.978 -205.333 441.433C-202.517 442.637 -205.67 455.538 -207.739 458.282C-209.448 460.665 -209.448 464.348 -210.242 467.694Z" fill="white"/>
<path d="M-178.906 490.849V480.836L-172.335 475.709L-166.318 481.125V491.355C-171.445 491.09 -171.734 494.46 -171.613 498.576C-171.397 508.565 -171.613 518.578 -171.613 528.568V534.272H-173.418V507.602C-173.185 504.21 -173.241 500.804 -173.587 497.421C-174.356 495.012 -175.467 492.726 -176.884 490.633L-178.906 490.849Z" fill="white"/>
<path d="M93.9284 622.411V580.817L88.4649 579.566V569.071L94.843 564.064L101.028 569.336V579.614C95.6613 579.229 95.4687 582.599 95.565 586.835C95.7816 598.87 95.565 610.713 95.565 622.676L93.9284 622.411Z" fill="white"/>
<path d="M372.346 330.895V320.978L379.037 315.081C380.024 316.188 381.877 318.283 383.851 320.353L385.102 319.534V330.823C379.807 330.582 379.615 334.025 379.687 338.237C379.904 348.443 379.687 358.673 379.687 368.878V374.655H377.882V354.508C377.882 349.117 377.738 343.677 377.882 338.285C378.075 334.193 378.075 330.51 372.346 330.895Z" fill="white"/>
<path d="M228.709 504.105C234.076 506.512 236.122 511.038 234.1 517.2C223.847 521.677 231.982 531.305 228.083 537.972V532.027C228.083 529.812 227.963 527.598 228.083 525.407C228.348 521.316 228.348 517.512 222.379 518.186V508.245L228.709 504.105Z" fill="white"/>
<path d="M505.875 338.309L512.518 333.495L518.319 338.309V346.661C507.175 350.946 515.912 360.839 511.989 366.856C511.989 363.848 512.157 360.406 511.989 357.012C511.724 353.233 513.818 348.515 507.32 347.022C506.116 346.686 506.236 340.764 505.875 338.309Z" fill="white"/>
<path d="M-39.2396 607.806C-39.2396 603.545 -39.4562 599.357 -39.2396 595.193C-39.023 591.029 -39.5525 587.586 -44.9196 587.683V578.344L-38.662 574.059L-32.9097 578.608V586.768C-43.4756 591.654 -35.6775 601.186 -39.2396 607.806Z" fill="white"/>
</g>
<defs>
<clipPath id="clip0_80_6541">
<rect width="675" height="506" fill="white"/>
</clipPath>
</defs>
</svg>
