<svg width="1283" height="825" viewBox="0 0 1283 825" fill="none" xmlns="http://www.w3.org/2000/svg">
<g opacity="0.1">
<path d="M929.988 405.957V423.288C923.3 417.665 933.546 404.782 919.672 404.818V191.288C934.827 185.594 922.518 171.714 929.526 162.034V188.761C938.669 188.334 938.455 193.708 938.455 199.794C938.313 264.968 938.313 330.13 938.455 395.28C938.384 400.867 940.056 407.7 929.988 405.957Z" fill="#8D4B00"/>
<path d="M115.354 330.021V354.933L123.074 356.606V570.136L115.639 572.627L114.963 587.788L113.362 588.001C113.006 586.008 112.544 584.051 112.33 582.058C111.832 577.503 114.429 571.595 106.425 570.492C105.464 570.492 104.682 565.403 104.682 562.662C104.682 512.554 104.682 462.422 104.682 412.266V356.997L112.651 354.862V329.95L115.354 330.021Z" fill="#8D4B00"/>
<path d="M510.06 490.87V517.312L518.527 519.199V732.728L510.629 735.042C510.345 740.451 510.095 745.718 509.775 751.341C502.945 746.252 514.436 732.906 499.85 733.227V520.017C515.04 514.75 502.589 500.977 510.06 490.87Z" fill="#8D4B00"/>
<path d="M804.373 569.378C804.373 560.09 804.693 550.765 804.159 541.512C804.159 538.843 801.029 536.423 799.784 533.719C798.13 530.924 797.053 527.826 796.617 524.608C796.368 497.312 796.617 470.051 796.617 442.755C796.617 404.201 796.617 365.659 796.617 327.129C796.617 322.075 794.981 316.239 802.558 314.174C803.768 313.89 804.337 309.584 804.373 307.057C804.586 296.38 804.373 285.704 804.373 275.027H806.685C806.685 284.707 806.685 294.387 806.685 304.067C806.685 308.836 805.049 314.317 812.199 316.274C813.302 316.594 813.978 320.367 813.978 322.538C813.978 390.725 813.978 458.912 813.978 527.099C813.978 528.843 813.978 531.904 813.231 532.153C802.238 535.712 807.575 544.715 806.756 551.406C806.418 557.392 806.418 563.392 806.756 569.378H804.373Z" fill="#8D4B00"/>
<path d="M1051.66 284.601L1061.19 292.11V360.155C1061.19 389.479 1061.19 418.816 1061.19 448.164C1061.19 454.001 1063.18 460.763 1054.39 462.72C1053.4 462.934 1052.97 465.674 1052.12 467.631C1051.73 465.923 1051.76 463.61 1051.05 463.361C1040.38 459.588 1043.94 450.62 1043.94 443.36C1043.77 396.241 1043.77 349.122 1043.94 302.003C1043.94 296.594 1041.52 289.654 1050.55 288.159C1051.19 288.017 1051.51 285.063 1051.66 284.601Z" fill="#8D4B00"/>
<path d="M641.332 710.735L632.011 718.315C631.834 717.888 631.407 714.756 630.588 714.756C621.872 713.653 623.971 707.14 623.936 701.945C623.936 653.046 623.936 604.148 623.936 555.25C623.936 549.449 621.73 542.438 630.837 540.623C631.584 540.623 631.834 537.598 632.403 535.712C633.007 537.277 633.257 539.591 634.11 539.84C644.178 542.794 641.225 550.943 641.225 557.634C641.225 605.927 641.225 654.221 641.225 702.514L641.332 710.735Z" fill="#8D4B00"/>
<path d="M236.879 610.243L246.413 618.179V774.767C246.413 780.355 248.369 786.832 239.76 788.504C238.764 788.682 238.302 791.458 237.448 793.309C236.879 791.601 236.665 789.002 235.847 788.789C227.345 786.582 228.981 779.892 228.981 773.949C228.981 725.667 228.981 677.374 228.981 629.069C228.981 622.948 226.918 615.794 236.096 613.623C236.665 613.374 236.736 610.848 236.879 610.243Z" fill="#8D4B00"/>
<path d="M1226.54 36.6213C1226.54 50.1093 1226.26 63.5972 1226.76 77.0852C1226.76 80.1102 1229.82 82.9929 1231.24 86.0534C1232.53 88.2295 1233.34 90.656 1233.62 93.1711C1233.76 134.691 1233.76 176.21 1233.62 217.73C1233.62 220.079 1230.78 222.392 1229.32 224.848C1227.86 227.303 1226.65 229.403 1225.76 230.755C1223.58 228.764 1221.52 226.636 1219.61 224.385C1217.94 222.594 1216.84 220.354 1216.44 217.944C1216.27 176.139 1216.27 134.323 1216.44 92.4949C1216.44 90.5731 1217.26 87.2634 1218.25 87.0143C1225.94 85.1637 1224.12 79.2561 1224.16 74.2025C1224.16 61.7822 1224.16 49.2907 1224.16 36.9416L1226.54 36.6213Z" fill="#8D4B00"/>
<path d="M178.607 622.449L186.291 620.279C186.576 614.584 186.825 609.104 187.074 603.659H189.777C189.777 607.218 189.777 610.598 189.777 614.086C189.777 617.574 189.279 621.204 194.616 621.809C195.79 621.809 197.39 625.368 197.426 627.218C197.604 660.707 197.675 694.195 197.426 727.648C197.426 730.46 193.868 733.236 191.876 736.012L189.386 735.122V751.101H187.358V734.695L178.749 733.022L178.607 622.449Z" fill="#8D4B00"/>
<path d="M1004.41 278.23V295.206H1002.06C1001.74 290.046 1001.42 284.921 1001.07 279.084L993.454 277.02V166.697L1001.07 164.988C1001.32 159.401 1001.6 153.992 1001.85 148.618H1004.09C1004.34 153.92 1004.62 159.294 1004.91 165.095C1011.7 165.095 1012.49 169.081 1012.45 174.811C1012.2 206.235 1012.45 237.66 1012.45 269.048C1012.34 274.244 1013.52 280.259 1004.41 278.23Z" fill="#8D4B00"/>
<path d="M584.376 601.586V617.316L582.242 617.493L581.21 601.194L578.578 601.941C576.977 598.383 574.06 594.539 574.024 590.802C573.668 559.129 574.024 527.42 573.775 495.71C573.775 490.621 573.597 485.852 581.139 486.635C581.459 480.799 581.779 475.425 582.064 470.051H583.949V485.069L587.507 484.322C589.179 488.593 592.203 492.863 592.274 497.169C592.701 528.558 592.63 559.947 592.274 591.336C592.274 594.895 589.321 598.276 587.72 601.728L584.376 601.586Z" fill="#8D4B00"/>
<path d="M557.09 681.552V657.103L548.944 654.363C548.944 631.551 548.766 609.023 549.193 586.496C549.193 583.863 552.75 581.3 556.308 579.699C556.663 575.82 556.983 571.905 557.339 568.026H559.26C559.616 571.869 559.972 575.748 560.363 580.055L568.012 581.727V654.576L559.83 656.747V681.659L557.09 681.552Z" fill="#8D4B00"/>
<path d="M1249.63 132.816C1248.39 131.5 1245.54 128.688 1243.05 125.699C1242 124.313 1241.42 122.632 1241.38 120.894C1241.23 97.1689 1241.23 73.4433 1241.38 49.7178C1241.38 48.0451 1241.98 45.0913 1242.8 44.9134C1251.62 43.0272 1248.81 36.1231 1248.95 30.678C1248.9 20.6095 1249.41 10.5457 1250.48 0.53476C1250.48 12.1721 1250.48 23.8451 1250.48 35.4825C1250.48 39.2548 1249.99 43.3831 1255.82 44.0592C1256.96 44.0592 1258.49 47.6181 1258.52 49.5043C1258.7 73.2417 1258.52 96.9435 1258.52 120.681C1258.63 122.401 1258.16 124.107 1257.17 125.521C1254.4 128.653 1251.16 131.393 1249.63 132.816Z" fill="#8D4B00"/>
<path d="M979.296 241.895V268.443H977.374V243.354L973.461 244.137C971.896 240.578 969.05 236.734 968.979 232.998C968.516 213.46 968.552 193.85 968.979 174.348C968.979 171.181 971.718 168.084 973.212 164.953L976.058 165.7L977.197 154.027H979.224C979.438 157.586 979.687 161.145 979.936 164.704L982.462 163.956C984.134 168.227 987.122 172.426 987.229 176.768C987.762 195.701 987.442 214.67 987.478 233.709C987.442 238.514 988.047 243.923 979.296 241.895Z" fill="#8D4B00"/>
<path d="M164.732 586.079V612.237H161.78C161.78 606.187 161.388 600.137 161.78 594.122C162.171 588.108 161.104 584.335 153.918 584.442C153.918 560.99 153.74 538.178 154.202 515.437C154.202 513.195 157.938 511.024 161.317 507.18C161.317 505.97 161.709 502.233 161.993 498.532L163.985 498.283L165.088 510.027C171.67 509.707 172.63 513.586 172.523 519.422C172.215 538.403 172.215 557.383 172.523 576.364C172.879 582.129 172.061 586.222 164.732 586.079Z" fill="#8D4B00"/>
<path d="M1265.78 -30H1283V43.6322H1265.78V-30Z" fill="#8D4B00"/>
<path d="M436.704 619.202C436.704 629.629 436.953 640.057 436.704 650.448C436.526 656.036 436.953 660.484 444.175 660.342V716.287C440.617 720.913 437.878 723.404 437.06 726.18C436.475 729.781 436.392 733.446 436.811 737.07H434.392V721.518C426.423 721.732 425.213 717.603 425.391 711.411C425.818 697.532 425.711 683.617 425.391 669.737C425.391 663.652 425.178 658.313 433.823 658.705V619.166L436.704 619.202Z" fill="#8D4B00"/>
<path d="M864.103 398.056L856.988 400.298C856.668 405.779 856.383 410.975 856.063 417.131C849.98 411.046 860.475 398.127 845.391 398.768V339.122C853.466 340.047 854.036 335.136 853.751 328.766C853.324 318.73 853.751 308.694 853.751 298.658L855.957 298.409C856.206 301.007 856.668 303.569 856.668 306.167C856.668 314.779 856.384 323.392 856.917 331.933C857.095 334.282 859.87 336.417 861.364 338.695C862.467 340.439 864.246 342.254 864.281 344.069C864.317 361.72 864.103 379.515 864.103 398.056Z" fill="#8D4B00"/>
<path d="M66.9365 546.719C49.149 548.427 49.149 548.427 49.149 533.124C49.149 515.97 49.7893 498.781 48.8999 481.699C48.7286 480.426 48.8465 479.131 49.2448 477.91C49.6431 476.688 50.3116 475.573 51.2006 474.646C52.0895 473.719 53.176 473.005 54.3791 472.556C55.5822 472.107 56.8709 471.936 58.1495 472.054C59.4211 471.949 60.7 472.136 61.8881 472.602C63.0763 473.067 64.1421 473.799 65.004 474.74C65.8659 475.681 66.501 476.807 66.8607 478.032C67.2203 479.257 67.2949 480.548 67.0788 481.806C66.3673 503.265 66.9365 524.796 66.9365 546.719Z" fill="#8D4B00"/>
<path d="M838.489 466.421C834.469 466.421 831.374 466.421 828.137 466.421C823.121 466.777 821.342 464.428 821.378 459.624C821.378 439.552 821.378 419.445 821.378 399.373C821.378 391.33 826.749 389.728 838.418 394.106L838.489 466.421Z" fill="#8D4B00"/>
<path d="M407.853 658.029C421.549 659.915 418.917 668.242 418.952 675.289C418.952 692.122 418.739 708.991 418.952 725.824C418.952 732.088 416.924 734.187 410.841 734.045C404.758 733.903 401.2 733.405 401.307 726.073C401.627 706.856 400.987 687.602 401.734 668.42C402.054 664.221 406.43 660.413 407.853 658.029Z" fill="#8D4B00"/>
<path d="M706.826 488.237C708.356 495.924 703.944 505.177 715.684 505.426V568.133H697.576C697.576 547.705 697.576 528.523 697.576 509.341C697.576 508.202 697.932 506.138 698.323 506.102C709.031 504.607 705.367 495.817 706.826 488.237Z" fill="#8D4B00"/>
<path d="M525.179 590.695L532.294 588.738V558.666H534.429V588.347L542.789 590.767V645.857H525.001L525.179 590.695Z" fill="#8D4B00"/>
<path d="M137.375 516.54V489.528H139.403V519.031C148.475 519.209 148.759 524.511 148.617 530.917C148.261 545.651 148.617 560.42 148.617 575.759H129.264C129.264 558.57 129.051 541.487 129.584 524.44C129.549 522.127 133.675 520.027 137.375 516.54Z" fill="#8D4B00"/>
<path d="M1117.65 315.669V253.283C1129.42 252.891 1125.12 243.46 1126.58 235.489C1128.11 242.962 1124.58 250.898 1133.69 253.781C1134.62 254.066 1134.69 258.123 1134.69 260.436C1134.69 274.671 1134.51 288.907 1134.69 303.142C1135.15 315.74 1136.29 319.619 1117.65 315.669Z" fill="#8D4B00"/>
<path d="M1026.47 365.955V326.346C1018.07 326.773 1017.61 322.004 1017.72 316.096C1018 302.537 1017.72 288.978 1017.72 274.921C1028.82 275.205 1025.22 266.628 1028.39 261.041C1028.64 263.354 1028.85 265.703 1029.21 268.159C1029.46 269.867 1029.67 272.892 1030.31 272.999C1040.56 274.778 1036.46 282.75 1036.71 288.337C1037.21 298.373 1036.96 308.445 1036.71 318.481C1036.71 320.687 1036.04 324.709 1035.29 324.815C1026.15 325.919 1029.39 332.823 1029.21 337.698C1028.85 347.165 1029.21 356.667 1029.21 366.169L1026.47 365.955Z" fill="#8D4B00"/>
<path d="M203.367 779.536V729.535L210.98 728.075L211.692 717.079L213.755 716.829L214.715 727.506C222.151 727.506 222.329 732.56 222.151 738.61C221.759 751.884 222.151 765.23 222.151 779.287C213.577 778.646 214.36 784.376 214.431 789.786C214.431 799.857 214.431 809.929 214.431 820H211.443C211.443 809.857 211.443 799.715 211.443 789.572C211.549 783.878 211.443 778.753 203.367 779.536Z" fill="#8D4B00"/>
<path d="M606.504 686.464V647.921C597.077 647.921 597.753 641.622 597.895 635.216C598.179 622.511 597.895 609.806 597.895 596.461L605.65 594.254C606.006 590.695 606.362 587.137 606.717 583.293L608.496 583.08L609.635 594.183C616.963 594.183 617.675 598.738 617.461 604.86C617.034 618.17 617.461 631.48 617.461 645.074L609.03 647.743V686.25L606.504 686.464Z" fill="#8D4B00"/>
<path d="M962.895 338.624H944.04V286.309C944.04 285.775 944.04 284.814 944.538 284.707C958.093 280.223 949.804 268.942 951.903 260.934C952.097 257.955 952.935 255.053 954.357 252.429V281.255L962.895 284.209V338.624Z" fill="#8D4B00"/>
<path d="M303.013 709.281C310.733 706.576 310.733 706.576 311.871 691.487C313.33 698.604 309.737 706.612 318.986 709.494C320.053 709.814 320.089 714.37 320.089 716.968C320.089 730.918 319.484 744.869 320.338 758.748C321.121 771.418 316.78 776.151 303.12 769.959L303.013 709.281Z" fill="#8D4B00"/>
<path d="M1142.3 186.057C1146.46 186.057 1149.63 186.27 1152.76 186.057C1157.63 185.665 1159.87 187.551 1159.87 192.569C1159.87 208.228 1159.87 223.923 1159.87 239.581C1159.87 240.756 1159.87 242.678 1159.34 243.14C1146.85 248.977 1154.4 260.543 1151.16 271.041C1150.98 266.913 1150.8 264.6 1150.73 262.251C1150.66 259.902 1150.73 257.518 1150.73 255.133C1150.55 250.863 1151.73 245.88 1144.93 245.24C1144.04 245.24 1142.73 242.606 1142.69 241.183C1142.26 222.926 1142.3 205.132 1142.3 186.057Z" fill="#8D4B00"/>
<path d="M327.987 732.624C344.956 730.88 344.956 730.88 344.956 746.254C344.956 758.674 345.205 771.166 344.742 783.515C344.742 786.255 341.861 788.853 340.367 791.558C338.944 793.476 337.905 795.651 337.307 797.964C337.281 803.612 336.745 809.246 335.706 814.797C335.706 811.95 335.706 809.103 335.706 806.256C336.098 802.693 335.93 799.09 335.208 795.579C334.355 793.159 331.224 791.558 328.093 788.462L327.987 732.624Z" fill="#8D4B00"/>
<path d="M732.475 522.224C727.495 514.003 738.772 500.871 723.012 496.671V439.73L728.989 438.662C737.278 437.345 740.693 440.228 740.231 449.161C739.519 462.471 740.231 475.852 740.017 489.198C740.017 493.112 741.12 497.703 734.93 498.878C733.792 499.091 732.724 502.686 732.582 504.75C732.084 510.337 732.475 515.96 732.475 522.224Z" fill="#8D4B00"/>
<path d="M451.041 614.575H468.224V664.826H451.041V614.575Z" fill="#8D4B00"/>
<path d="M1175.39 245.667C1175.39 239.688 1175.56 234.99 1175.39 230.542C1175.21 226.093 1177.06 220.506 1169.44 219.865C1168.59 219.865 1167.24 217.196 1167.24 215.773C1167.06 201.858 1167.24 187.978 1167.24 174.063C1167.24 173.458 1167.24 172.462 1167.49 172.355C1180.97 167.159 1173.18 154.846 1176.95 143.706C1176.95 151.073 1176.95 155.984 1176.95 160.896C1176.95 164.882 1175.88 169.33 1182.04 170.504C1183.11 170.682 1184.1 174.384 1184.14 176.448C1184.31 188.904 1184.14 201.36 1184.14 213.744C1184.14 215.203 1184.35 217.659 1183.67 217.979C1171.54 223.851 1178.94 234.919 1176.74 243.354C1176.35 244.158 1175.89 244.931 1175.39 245.667Z" fill="#8D4B00"/>
<path d="M362.068 724.365C362.068 731.803 362.068 736.501 362.068 741.234C362.068 745.149 360.822 749.74 367.048 750.843C368.08 751.056 369.218 754.117 369.218 755.896C369.396 768.886 369.432 781.911 369.218 795.044C368.75 797.125 367.813 799.073 366.479 800.738C365.091 803.122 362.566 805.329 362.245 807.855C362.102 813.463 361.555 819.053 360.609 824.582C360.609 819.777 360.609 814.973 360.609 810.346C360.609 806.111 361.676 801.129 354.739 800.595C353.779 800.595 352.427 797.036 352.391 794.866C352.178 782.161 352.391 769.456 352.391 756.751C352.391 755.291 352.391 752.729 352.996 752.516C366.194 747.96 358.83 736.785 360.822 728.707C360.822 727.782 361.071 727.248 362.068 724.365Z" fill="#8D4B00"/>
<path d="M755.528 461.368C755.528 456.172 755.528 450.94 755.528 445.709C755.528 441.545 755.777 437.524 750.121 436.029C748.698 435.673 747.346 431.901 747.31 429.658C747.026 417.558 747.132 405.423 747.31 393.323C747.31 391.864 747.31 389.337 747.808 389.088C760.722 383.999 753.892 372.646 755.884 364.176C756.26 363.534 756.676 362.916 757.129 362.325C757.129 368.02 757.129 372.575 757.129 377.13C757.129 381.685 756.026 386.098 762.43 387.807C763.71 388.127 764.706 392.22 764.778 394.604C765.062 403.75 765.133 412.932 764.778 422.078C764.564 428.093 767.41 435.424 758.481 438.413C757.378 438.769 757.2 442.648 757.129 444.89C756.916 450.442 757.129 456.029 757.129 461.581L755.528 461.368Z" fill="#8D4B00"/>
<path d="M8.37991 517.714V502.126C8.37991 497.998 8.70008 493.906 3.00806 492.411C1.54948 492.019 0.197639 488.318 0.126489 486.076C-0.158112 473.976 0.126489 461.841 0.126489 449.741C0.126489 448.281 0.126479 445.719 0.588956 445.505C14.0719 440.381 5.96081 428.245 9.90964 417.782C9.90964 424.33 9.90964 428.886 9.90964 433.405C9.90964 437.925 8.73567 442.374 15.1392 444.082C16.4555 444.402 17.4871 448.495 17.5583 450.844C17.8073 462.374 17.5583 473.905 17.5583 485.4C17.5583 487.179 17.5583 490.062 16.8468 490.489C4.89354 496.539 11.5105 507.5 9.73175 516.184C9.60345 516.74 9.43704 517.287 9.23371 517.821L8.37991 517.714Z" fill="#8D4B00"/>
<path d="M887.939 316.452H870.791V267.127H887.939V316.452Z" fill="#8D4B00"/>
<path d="M658.123 519.839V546.21L666.448 548.488V577.777C652.752 577.777 660.792 589.379 656.202 597.315C655.847 590.197 655.598 585.251 655.313 579.521L647.736 577.741V548.595C654.851 548.025 656.416 543.327 655.776 536.708C655.242 531.227 655.776 525.605 655.776 520.053L658.123 519.839Z" fill="#8D4B00"/>
<path d="M1078.16 267.411C1078.16 273.533 1078.16 279.689 1078.16 285.811C1078.16 294.103 1078.16 294.103 1086.09 296.807V325.278C1072.82 325.669 1080.72 336.951 1077.06 342.681C1072.11 337.769 1081.47 325.598 1067.66 325.598V296.345C1075.38 296.345 1075.99 290.935 1075.56 284.529C1075.17 278.728 1075.56 272.892 1075.56 267.056L1078.16 267.411Z" fill="#8D4B00"/>
<path d="M252.745 651.383V622.129C260.429 622.414 261.248 617.503 260.821 611.203C260.394 604.904 260.821 598.997 260.821 592.875H263.489C263.489 599.53 263.774 606.221 263.489 612.84C263.169 618.57 264.698 622.129 271.422 621.773V650.92C257.548 650.92 266.584 663.091 262.351 668.714C256.979 663.874 267.153 651.561 252.745 651.383Z" fill="#8D4B00"/>
<path d="M386.863 705.824C386.863 709.169 386.863 712.514 386.863 715.824C386.863 717.532 386.863 720.415 387.824 720.806C400.631 726.323 391.559 737.284 394.085 745.291C394.085 745.789 394.085 746.857 393.765 746.964C383.875 749.918 387.753 758.85 384.48 765.292C384.778 761.973 384.718 758.633 384.302 755.327C383.804 753.085 381.634 751.199 380.318 749.099C379.001 746.999 377.4 745.54 377.258 743.618C376.867 738.316 377.258 732.942 377.258 727.639C377.258 726.465 377.258 724.365 377.685 724.081C387.397 721.162 383.626 712.301 386.863 705.824Z" fill="#8D4B00"/>
<path d="M1199.29 184.775C1199.29 181.537 1199.29 178.298 1199.29 175.095C1199.29 173.352 1199.29 170.469 1198.37 170.113C1185.49 164.597 1194.6 153.636 1192.07 145.628C1192.07 145.13 1192.07 144.027 1192.39 143.956C1202.14 140.931 1198.47 132.069 1201.68 125.556C1201.38 128.863 1201.44 132.192 1201.85 135.486C1202.84 137.763 1204.18 139.866 1205.84 141.714C1206.94 143.493 1208.72 145.272 1208.9 147.159C1209.32 152.461 1208.9 157.835 1208.9 163.173C1208.9 164.348 1208.9 166.412 1208.47 166.732C1198.83 169.544 1202.46 178.512 1199.29 184.775Z" fill="#8D4B00"/>
<path d="M780.929 400.547C780.502 396.419 781.462 388.732 779.328 387.771C767.659 382.504 773.387 372.753 772.213 364.923C771.964 363.322 772.604 360.155 773.173 360.083C783.419 358.411 779.541 349.976 781.142 342.716C783.206 349.834 779.257 357.485 788.542 360.973C792.419 362.432 787.225 381.294 784.273 386.098C781.676 390.191 781.889 395.885 780.929 400.547Z" fill="#8D4B00"/>
<path d="M33.6382 512.162C32.0018 506.824 36.3063 498.817 26.1319 496.29C22.2186 495.329 26.1319 474.439 29.2269 470.951C31.6729 467.037 33.5196 462.778 34.7055 458.317C35.7372 462.695 32.3575 469.706 40.8955 473.336C45.0578 475.115 40.3975 494.19 37.338 498.247C34.8122 501.771 34.8122 507.216 33.6382 512.162Z" fill="#8D4B00"/>
<path d="M79.957 546.398V531.594L89.669 524.013L98.5628 532.021V547.146C90.9853 546.754 90.5584 551.737 90.7363 557.822C91.0564 572.591 90.7363 587.396 90.7363 602.165V610.6H88.0681V571.168C88.4132 566.152 88.3299 561.116 87.8191 556.114C86.6818 552.553 85.0406 549.173 82.9453 546.078L79.957 546.398Z" fill="#8D4B00"/>
<path d="M483.236 740.914V679.417L475.161 677.567V662.05L484.588 654.648L493.731 662.442V677.638C485.798 677.068 485.513 682.051 485.655 688.314C485.976 706.108 485.655 723.618 485.655 741.305L483.236 740.914Z" fill="#8D4B00"/>
<path d="M894.769 309.904V295.241L904.659 286.522C906.117 288.159 908.857 291.256 911.774 294.316L913.624 293.106V309.797C905.797 309.441 905.513 314.53 905.619 320.758C905.94 335.848 905.619 350.973 905.619 366.062V374.603H902.951V344.816C902.951 336.844 902.738 328.801 902.951 320.829C903.236 314.779 903.236 309.334 894.769 309.904Z" fill="#8D4B00"/>
<path d="M682.457 565.997C690.39 569.556 693.414 576.247 690.426 585.357C675.271 591.977 687.295 606.212 681.532 616.07V607.28C681.532 604.006 681.354 600.731 681.532 597.493C681.923 591.443 681.923 585.82 673.101 586.816V572.118L682.457 565.997Z" fill="#8D4B00"/>
<path d="M1092.14 320.865L1101.96 313.747L1110.53 320.865V333.214C1094.06 339.549 1106.97 354.176 1101.18 363.073C1101.18 358.624 1101.42 353.535 1101.18 348.517C1100.78 342.93 1103.88 335.954 1094.27 333.748C1092.5 333.25 1092.67 324.495 1092.14 320.865Z" fill="#8D4B00"/>
<path d="M286.399 719.32C286.399 713.021 286.079 706.828 286.399 700.671C286.719 694.515 285.937 689.426 278.004 689.568V675.76L287.253 669.425L295.756 676.151V688.216C280.138 695.44 291.664 709.533 286.399 719.32Z" fill="#8D4B00"/>
</g>
</svg>
