<svg width="85" height="65" viewBox="0 0 85 65" fill="none" xmlns="http://www.w3.org/2000/svg">
<path d="M24.496 44.1536C23.8646 44.1054 23.2778 43.8111 22.8603 43.3342L13.0467 33.5013C12.8281 33.0428 12.7568 32.5275 12.8426 32.0264C12.9284 31.5252 13.1671 31.0634 13.5258 30.7038C13.8846 30.3443 14.3457 30.105 14.8457 30.0191C15.3458 29.9333 15.8601 30.0047 16.3179 30.2237L24.3978 38.3194L52.3011 10.558C52.7587 10.3389 53.2733 10.2674 53.7731 10.3534C54.2733 10.4394 54.7345 10.6785 55.0931 11.038C55.4519 11.3975 55.6907 11.8595 55.7764 12.3605C55.8621 12.8616 55.7908 13.3769 55.5723 13.8356L26.1316 43.3342C25.7142 43.8111 25.127 44.1054 24.496 44.1536Z" fill="white"/>
<path d="M29.4028 63C24.1411 62.9915 18.9775 61.5703 14.4499 58.8843C9.9222 56.1979 6.19583 52.3451 3.65847 47.7262C1.72971 44.2847 0.537652 40.4784 0.158292 36.5495C-0.440401 30.7877 0.667322 24.9769 3.34325 19.8417C6.01922 14.7066 10.1449 10.4746 15.2058 7.67365C18.6406 5.74109 22.4395 4.54669 26.3606 4.16658C30.2667 3.74553 34.2176 4.12469 37.9733 5.28097C38.3082 5.34807 38.6259 5.48458 38.9052 5.6818C39.1846 5.87898 39.4198 6.1325 39.5958 6.42611C39.7718 6.71969 39.8846 7.0469 39.9272 7.38672C39.9694 7.72651 39.9406 8.07145 39.8421 8.39941C39.7436 8.72737 39.5778 9.03111 39.3554 9.29113C39.1329 9.55117 38.8588 9.76179 38.5506 9.90945C38.2422 10.0571 37.9062 10.1386 37.5647 10.1487C37.2232 10.1588 36.883 10.0972 36.5667 9.96799C33.389 9.01066 30.0527 8.69863 26.7531 9.05025C23.4917 9.38487 20.3316 10.3771 17.4629 11.9673C14.6992 13.4951 12.2556 15.5428 10.2663 17.9982C8.21805 20.4996 6.68854 23.3852 5.76734 26.4863C4.84617 29.5875 4.5518 32.8415 4.90152 36.0579C5.23547 39.3257 6.22579 42.4922 7.81288 45.3663C9.33758 48.1356 11.3813 50.584 13.8319 52.5771C16.3283 54.6296 19.2083 56.1619 22.3033 57.0849C25.3982 58.0078 28.6458 58.3028 31.8562 57.9524C35.1175 57.6178 38.2775 56.6257 41.1463 55.0353C43.9102 53.5076 46.3534 51.4601 48.343 49.0045C50.391 46.5033 51.9207 43.6174 52.8418 40.5164C53.763 37.4154 54.0574 34.1614 53.7077 30.9447C53.6753 30.6068 53.71 30.2659 53.8091 29.9415C53.9086 29.617 54.0705 29.3151 54.2864 29.0535C54.5019 28.7917 54.7669 28.575 55.0662 28.416C55.3655 28.2568 55.693 28.1584 56.0302 28.126C56.3675 28.0939 56.7077 28.1283 57.0316 28.2279C57.3554 28.3272 57.6567 28.4898 57.9177 28.7058C58.1791 28.9218 58.3953 29.1876 58.554 29.4872C58.713 29.7871 58.8111 30.1152 58.8435 30.4531C59.4391 36.2185 58.3266 42.0317 55.6446 47.1674C52.9625 52.3028 48.83 56.5329 43.7633 59.329C40.2919 61.3409 36.4342 62.5919 32.445 63C31.4309 63 30.3841 63 29.4028 63Z" fill="white"/>
</svg>
