<svg width="19" height="19" viewBox="0 0 19 19" fill="none" xmlns="http://www.w3.org/2000/svg">
<path fill-rule="evenodd" clip-rule="evenodd" d="M0.273133 0.279828C0.639515 -0.0910426 1.23608 -0.0935898 1.60559 0.274138L10.2015 8.82848C10.5732 9.19842 10.5732 9.80158 10.2015 10.1715L1.60559 18.7259C1.23608 19.0936 0.639515 19.091 0.273133 18.7202C-0.0932479 18.3493 -0.0907083 17.7505 0.278805 17.3828L7.18258 10.4457C7.74212 9.80645 8.04639 9.5 8.04639 9.5C8.04639 9.5 7.74212 9.19355 7.18258 8.55433C7.18258 8.55433 6.22206 7.53172 5.62462 6.93716L0.278805 1.61718C-0.0907083 1.24945 -0.093248 0.650699 0.273133 0.279828Z" fill="#C6A580"/>
<path fill-rule="evenodd" clip-rule="evenodd" d="M18.7269 18.7202C18.3605 19.091 17.7639 19.0936 17.3944 18.7259L8.79854 10.1715C8.4268 9.80158 8.4268 9.19842 8.79854 8.82848L17.3944 0.27414C17.7639 -0.0935879 18.3605 -0.0910392 18.7269 0.279832C19.0932 0.650703 19.0907 1.24945 18.7212 1.61718L11.8174 8.55434C11.2579 9.19355 10.9536 9.5 10.9536 9.5C10.9536 9.5 11.2579 9.80645 11.8174 10.4457C11.8174 10.4457 12.7779 11.4683 13.3754 12.0628L18.7212 17.3828C19.0907 17.7505 19.0932 18.3493 18.7269 18.7202Z" fill="#C6A580"/>
</svg>
