<svg width="150" height="150" viewBox="0 0 150 150" fill="none" xmlns="http://www.w3.org/2000/svg">
<path d="M122.508 94.0001L112.692 74.4446C111.849 73.0791 110.668 71.953 109.261 71.1745C107.855 70.3961 106.271 69.9916 104.662 70.0001H49.3385C47.7294 69.9916 46.1453 70.3961 44.7387 71.1745C43.3321 71.953 42.1505 73.0791 41.3077 74.4446L31.4923 94.0001L20.4277 104.24C19.9769 104.657 19.6175 105.161 19.3718 105.723C19.1261 106.284 18.9995 106.89 19 107.502V145.556C19 146.734 19.4701 147.865 20.3068 148.698C21.1435 149.532 22.2783 150 23.4615 150H41.3077C43.0923 150 45.7692 148.222 45.7692 146.444V141.111H108.231V145.556C108.231 147.333 110.015 150 111.8 150H130.538C131.722 150 132.857 149.532 133.693 148.698C134.53 147.865 135 146.734 135 145.556V107.502C135 106.89 134.874 106.284 134.628 105.723C134.383 105.161 134.023 104.657 133.572 104.24L122.508 94.0001ZM50.2308 78.889H103.769L112.692 96.6668H41.3077L50.2308 78.889ZM54.6923 119.778C54.6923 121.556 52.0154 123.333 50.2308 123.333H31.4923C29.7077 123.333 27.9231 120.667 27.9231 118.889V109.111C28.8154 106.445 30.6 104.667 33.2769 105.556L51.1231 109.111C52.9077 109.111 54.6923 111.778 54.6923 113.556V119.778ZM126.077 118.889C126.077 120.667 124.292 123.333 122.508 123.333H103.769C101.985 123.333 99.3077 121.556 99.3077 119.778V113.556C99.3077 111.778 101.092 109.111 102.877 109.111L120.723 105.556C123.4 104.667 125.185 106.445 126.077 109.111V118.889Z" fill="#FCB663"/>
</svg>
