<svg width="150" height="150" viewBox="0 0 150 150" fill="none" xmlns="http://www.w3.org/2000/svg">
<path d="M84.1161 54.3874C84.8143 53.8843 85.7561 53.8843 86.4543 54.3874L94.4902 60.1769C95.1884 60.6799 96.1301 60.6799 96.8283 60.1769L101.492 56.8173C102.467 56.1151 102.607 54.718 101.791 53.8362L86.7545 37.5864C85.9628 36.7309 84.6102 36.7309 83.8185 37.5864L68.7822 53.8363C67.9663 54.7181 68.1063 56.1151 69.081 56.8174L73.7433 60.1765C74.4415 60.6796 75.3833 60.6796 76.0816 60.1765L84.1161 54.3874Z" fill="#FCB663"/>
<path d="M109.943 62.646C109.257 61.9046 108.125 61.7911 107.306 62.3816L96.8283 69.9295C96.1301 70.4325 95.1884 70.4325 94.4902 69.9295L86.4546 64.1402C85.7563 63.6372 84.8146 63.6372 84.1163 64.1403L77.7893 68.6991C76.8146 69.4014 76.6746 70.7984 77.4905 71.6801L93.8386 89.3475C94.2171 89.7566 94.7492 89.9892 95.3066 89.9892H134.81C134.915 89.9892 135 89.9043 135 89.7996V89.7996C135 89.7519 134.982 89.7059 134.95 89.6709L109.943 62.646Z" fill="#FCB663"/>
<path d="M50.794 54.4794C50.0024 53.6239 48.6498 53.6239 47.8581 54.4794L18.1076 86.6308C16.9226 87.9114 17.8309 89.9892 19.5755 89.9892H79.0764C80.821 89.9892 81.7293 87.9114 80.5443 86.6308L50.794 54.4794Z" fill="#FCB663"/>
<path d="M80.956 97.9027C79.8515 97.9027 78.956 98.7981 78.956 99.9027V104.827C78.956 105.932 78.0606 106.827 76.956 106.827H73.044C71.9394 106.827 71.044 105.932 71.044 104.827V99.9027C71.044 98.7981 70.1485 97.9027 69.044 97.9027H60.7417C59.9841 97.9027 59.2915 98.3307 58.9527 99.0084L34.9084 147.106C34.2436 148.435 35.2106 150 36.6973 150H69.044C70.1485 150 71.044 149.105 71.044 148V135.162C71.044 134.057 71.9394 133.162 73.044 133.162H76.956C78.0606 133.162 78.956 134.057 78.956 135.162V148C78.956 149.105 79.8515 150 80.956 150H113.303C114.789 150 115.756 148.435 115.092 147.106L91.0473 99.0084C90.7085 98.3307 90.0159 97.9027 89.2583 97.9027H80.956ZM78.956 124.831C78.956 125.936 78.0606 126.831 76.956 126.831H73.044C71.9394 126.831 71.044 125.936 71.044 124.831V115.158C71.044 114.054 71.9394 113.158 73.044 113.158H76.956C78.0606 113.158 78.956 114.054 78.956 115.158V124.831Z" fill="#FCB663"/>
</svg>
