<svg width="150" height="150" viewBox="0 0 150 150" fill="none" xmlns="http://www.w3.org/2000/svg">
<path d="M113.708 81.6418L131.702 98.0373C133.877 100.047 133.256 101.595 130.308 101.595H116.81V144.433C116.81 147.372 114.328 150 111.379 150H87.9538V119.995C87.9538 117.056 85.3179 114.428 82.3692 114.428H67.6308C64.6821 114.428 62.0462 117.056 62.0462 119.995V150H38.6206C35.6719 150 33.036 147.372 33.036 144.433V101.595H19.6925C16.7438 101.595 16.1233 100.047 18.2975 98.0373L70.8872 50.4048C73.0615 48.3956 76.7846 48.3956 79.1078 50.4048L91.0514 61.0745V52.5674C91.0514 49.6278 93.6874 47 96.636 47H108.272C111.221 47 113.703 49.6278 113.703 52.5674L113.708 81.6418Z" fill="#FCB663"/>
</svg>
