<svg width="150" height="150" viewBox="0 0 150 150" fill="none" xmlns="http://www.w3.org/2000/svg">
<path d="M105.667 34H123.167C126.388 34 129 36.5967 129 39.8V144.2C129 147.403 126.388 150 123.167 150H105.667C102.445 150 99.8334 147.403 99.8334 144.2V39.8C99.8334 36.5967 102.445 34 105.667 34Z" fill="#FCB663"/>
<path d="M64.8333 77.5H82.3333C85.555 77.5 88.1666 80.0968 88.1666 83.3V144.2C88.1666 147.403 85.555 150 82.3333 150H64.8333C61.6117 150 59 147.403 59 144.2V83.3C59 80.0968 61.6117 77.5 64.8333 77.5Z" fill="#FCB663"/>
<path d="M26.0489 150C25.4966 150 25.0489 149.552 25.0489 149V114C25.0489 113.448 25.4966 113 26.0489 113H36.5881C41.2443 113 44.6353 113.967 46.7609 115.902C48.9203 117.837 50 120.497 50 123.882C50 125.886 49.5614 127.769 48.6841 129.531C47.8069 131.293 46.3391 132.709 44.281 133.78C42.2565 134.851 39.4898 135.387 35.9808 135.387H33.6911C33.1388 135.387 32.6911 135.834 32.6911 136.387V149C32.6911 149.552 32.2434 150 31.6911 150H26.0489ZM22 145.316C21.4477 145.316 21 144.868 21 144.316V140.429C21 139.876 21.4477 139.429 22 139.429H40.3381C40.8904 139.429 41.3381 139.876 41.3381 140.429V144.316C41.3381 144.868 40.8904 145.316 40.3381 145.316H22ZM22 135.387C21.4477 135.387 21 134.939 21 134.387V129.961C21 129.408 21.4477 128.961 22 128.961H34.829C35.3813 128.961 35.829 129.408 35.829 129.961V134.387C35.829 134.939 35.3813 135.387 34.829 135.387H22ZM35.2216 128.961C36.6725 128.961 37.9209 128.805 38.9668 128.494C40.0128 128.149 40.8226 127.613 41.3962 126.888C41.9697 126.162 42.2565 125.247 42.2565 124.141C42.2565 122.552 41.7673 121.378 40.7888 120.618C39.8104 119.823 38.2752 119.426 36.1832 119.426H33.6911C33.1388 119.426 32.6911 119.873 32.6911 120.426V127.961C32.6911 128.513 33.1388 128.961 33.6911 128.961H35.2216Z" fill="#FCB663"/>
</svg>
