<svg width="39" height="46" viewBox="0 0 39 46" fill="none" xmlns="http://www.w3.org/2000/svg">
<path fill-rule="evenodd" clip-rule="evenodd" d="M20 12.5C20 13.3284 19.3284 14 18.5 14H7.5C6.67157 14 6 13.3284 6 12.5V12.5C6 11.6716 6.67157 11 7.5 11H18.5C19.3284 11 20 11.6716 20 12.5V12.5Z" fill="#8D4B00"/>
<path fill-rule="evenodd" clip-rule="evenodd" d="M13 5.5C13.8284 5.5 14.5 6.17157 14.5 7L14.5 18C14.5 18.8284 13.8284 19.5 13 19.5V19.5C12.1716 19.5 11.5 18.8284 11.5 18L11.5 7C11.5 6.17157 12.1716 5.5 13 5.5V5.5Z" fill="#8D4B00"/>
<rect x="1" y="1" width="23" height="23" rx="11.5" stroke="#8D4B00" stroke-width="2"/>
</svg>
